<svg xmlns="http://www.w3.org/2000/svg" width="1200" height="760" viewBox="0 0 1200 760"><defs><linearGradient id="sky" x1="0" y1="0" x2="1" y2="1"><stop stop-color="#163149"/><stop offset=".58" stop-color="#294436"/><stop offset="1" stop-color="#7ab0b4"/></linearGradient><linearGradient id="gold" x1="0" y1="0" x2="1" y2="0"><stop stop-color="#e0cc93"/><stop offset="1" stop-color="#fff0b6"/></linearGradient><filter id="soft"><feGaussianBlur stdDeviation="18"/></filter></defs><rect width="1200" height="760" fill="url(#sky)"/><circle cx="990" cy="120" r="120" fill="#e0cc93" opacity=".28" filter="url(#soft)"/><path d="M0 590 C190 500 280 430 420 510 C560 590 680 330 830 410 C1010 500 1080 445 1200 380 L1200 760 L0 760 Z" fill="#0f211b" opacity=".72"/><path d="M0 640 C190 560 340 520 505 575 C690 635 790 470 930 530 C1040 575 1115 545 1200 500 L1200 760 L0 760 Z" fill="#162d23"/><path d="M0 672 C170 630 330 614 520 642 C730 674 900 600 1200 622 L1200 760 L0 760 Z" fill="#0a1713" opacity=".95"/><text x="72" y="116" fill="url(#gold)" font-family="Arial, sans-serif" font-size="30" font-weight="700" letter-spacing="2">DICKSTONE MOUNTAIN CLUB</text><text x="72" y="204" fill="#ffffff" font-family="Arial, sans-serif" font-size="86" font-weight="800">백덕산</text><text x="76" y="264" fill="#e8f3e8" font-family="Arial, sans-serif" font-size="34" font-weight="700">강원 · 1350m · 정상 좌표 기준</text><rect x="72" y="600" width="360" height="54" rx="27" fill="rgba(255,255,255,.14)" stroke="rgba(255,255,255,.26)"/><text x="104" y="636" fill="#ffffff" font-family="Arial, sans-serif" font-size="25" font-weight="700">공개 사진 준비중</text></svg>